<?xml version="1.0" standalone="no"?>
<!DOCTYPE svg PUBLIC "-//W3C//DTD SVG 20010904//EN"
 "http://www.w3.org/TR/2001/REC-SVG-20010904/DTD/svg10.dtd">
<svg version="1.0" xmlns="http://www.w3.org/2000/svg"
 width="512.000000pt" height="512.000000pt" viewBox="0 0 512.000000 512.000000"
 preserveAspectRatio="xMidYMid meet">
<metadata>
Created by potrace 1.11, written by Peter Selinger 2001-2013
</metadata>
<g transform="translate(0.000000,512.000000) scale(0.100000,-0.100000)"
fill="#000000" stroke="none">
<path d="M0 2560 l0 -2560 2560 0 2560 0 0 2560 0 2560 -2560 0 -2560 0 0
-2560z m2795 1230 l-170 -170 -170 170 -170 170 170 170 170 170 170 -170 170
-170 -170 -170z m-1398 44 c250 -62 452 -248 540 -499 l28 -80 3 -980 3 -980
-22 -17 c-18 -16 -44 -18 -193 -18 -139 0 -176 3 -194 16 l-22 15 0 420 0 419
-325 0 -325 0 0 -417 c0 -373 -2 -418 -17 -435 -14 -16 -34 -18 -192 -18 -144
0 -181 3 -199 16 l-22 15 0 953 c0 922 1 955 20 1032 77 303 322 525 635 575
70 11 202 3 282 -17z m3232 3 l26 -12 3 -200 c3 -233 5 -227 -85 -213 -76 13
-272 3 -348 -17 -85 -23 -249 -107 -322 -165 -133 -106 -250 -292 -293 -464
-28 -110 -28 -302 0 -412 83 -326 349 -577 678 -640 88 -17 206 -18 286 -3 88
16 86 20 86 -205 0 -144 -3 -197 -13 -210 -21 -28 -180 -42 -323 -27 -301 30
-549 143 -763 348 -208 197 -338 433 -392 708 -18 93 -18 377 0 470 36 181
117 370 222 518 81 114 252 277 362 346 159 98 355 168 537 191 96 11 304 4
339 -13z m-1815 -427 l26 -10 0 -1279 c0 -1256 0 -1280 -19 -1291 -12 -6 -94
-10 -196 -10 -102 0 -184 4 -196 10 -19 11 -19 35 -19 1291 l0 1280 23 9 c30
12 349 12 381 0z"/>
<path d="M1110 3404 c-85 -31 -153 -94 -193 -181 -21 -46 -22 -62 -25 -355
l-4 -308 327 0 326 0 -3 313 c-3 309 -3 312 -28 362 -32 64 -99 131 -158 157
-63 28 -181 34 -242 12z"/>
</g>
</svg>
